<svg xmlns="http://www.w3.org/2000/svg" shape-rendering="geometricPrecision" text-rendering="geometricPrecision" image-rendering="optimizeQuality" fill="#d3d3d3" fill-rule="evenodd" clip-rule="evenodd" viewBox="0 0 512 452.64"><path d="M143.65 161.02c33.05-59.34 90.64-98.27 164.75-89.98 69.06 7.72 131.91 57.64 147.19 131.68 12.78 62-10.79 121.11-52.63 161.1-48.87 46.7-122.66 67.32-192.61 36.01-35.84-16.05-60.23-36.5-78.47-62.84-1.86-2.45-4.36-6.41-7.83-8.99-10.07-7.53-23.32 1.41-21.28 12.43.43 2.36 1.49 4.88 3.36 7.53 15 23.71 31.64 41.83 53.38 58.4 49.84 37.98 114.27 55.13 178.92 41.8 60.23-12.41 109.18-48.92 139.51-97.8 53.04-85.46 40.95-188.32-14.26-260.43-34.29-44.79-85.22-77.72-147.5-87.26C211.03-13.44 105.47 44.94 71.66 137.99l-42.51-13.6c-11.78-3.73-24.37 2.79-28.1 14.57a22.326 22.326 0 0 0 .9 15.89l48.64 108.53c5.04 11.3 18.29 16.37 29.59 11.32l1.65-.82.02.03 106.62-58.84c10.86-5.97 14.83-19.61 8.87-30.47-3.15-5.74-8.44-9.55-14.34-11l-39.35-12.58z"/></svg>
